<svg xmlns="http://www.w3.org/2000/svg" viewBox="0 0 150 150" role="img" aria-labelledby="title desc">
<title id="title">NN login QR</title>
<desc id="desc">Static local QR-style graphic for Nationale-Nederlanden login panel.</desc>
<rect width="150" height="150" rx="8" fill="#ffffff"/>
<rect x="8" y="8" width="42" height="42" fill="#111111"/>
<rect x="14" y="14" width="30" height="30" fill="#ffffff"/>
<rect x="20" y="20" width="18" height="18" fill="#111111"/>
<rect x="100" y="8" width="42" height="42" fill="#111111"/>
<rect x="106" y="14" width="30" height="30" fill="#ffffff"/>
<rect x="112" y="20" width="18" height="18" fill="#111111"/>
<rect x="8" y="100" width="42" height="42" fill="#111111"/>
<rect x="14" y="106" width="30" height="30" fill="#ffffff"/>
<rect x="20" y="112" width="18" height="18" fill="#111111"/>
<g fill="#111111">
<rect x="62" y="12" width="10" height="10"/>
<rect x="76" y="12" width="10" height="10"/>
<rect x="62" y="26" width="10" height="10"/>
<rect x="82" y="26" width="10" height="10"/>
<rect x="56" y="42" width="10" height="10"/>
<rect x="70" y="42" width="10" height="10"/>
<rect x="84" y="42" width="10" height="10"/>
<rect x="98" y="56" width="10" height="10"/>
<rect x="112" y="56" width="10" height="10"/>
<rect x="56" y="56" width="10" height="10"/>
<rect x="70" y="56" width="10" height="10"/>
<rect x="14" y="56" width="10" height="10"/>
<rect x="28" y="56" width="10" height="10"/>
<rect x="42" y="56" width="10" height="10"/>
<rect x="14" y="70" width="10" height="10"/>
<rect x="42" y="70" width="10" height="10"/>
<rect x="56" y="70" width="10" height="10"/>
<rect x="84" y="70" width="10" height="10"/>
<rect x="98" y="70" width="10" height="10"/>
<rect x="112" y="70" width="10" height="10"/>
<rect x="126" y="70" width="10" height="10"/>
<rect x="14" y="84" width="10" height="10"/>
<rect x="28" y="84" width="10" height="10"/>
<rect x="56" y="84" width="10" height="10"/>
<rect x="70" y="84" width="10" height="10"/>
<rect x="84" y="84" width="10" height="10"/>
<rect x="112" y="84" width="10" height="10"/>
<rect x="126" y="84" width="10" height="10"/>
<rect x="56" y="98" width="10" height="10"/>
<rect x="70" y="98" width="10" height="10"/>
<rect x="98" y="98" width="10" height="10"/>
<rect x="112" y="98" width="10" height="10"/>
<rect x="56" y="112" width="10" height="10"/>
<rect x="84" y="112" width="10" height="10"/>
<rect x="98" y="112" width="10" height="10"/>
<rect x="126" y="112" width="10" height="10"/>
<rect x="56" y="126" width="10" height="10"/>
<rect x="70" y="126" width="10" height="10"/>
<rect x="84" y="126" width="10" height="10"/>
<rect x="112" y="126" width="10" height="10"/>
</g>
</svg>
