<svg width="1024" height="1024" viewBox="0 0 1024 1024" fill="none" xmlns="http://www.w3.org/2000/svg">
<rect width="1024" height="1024" fill="white"/>
<path d="M313.187 582.657C313.187 550.776 331.8 526.902 348.214 501.432C360.789 481.931 369.025 460.303 367.911 436.784C365.273 381.708 320.163 337.92 264.911 337.92C208.047 337.92 162.175 383.836 161.794 441.157C161.736 450.228 162.82 459.003 164.931 467.394C171.877 450.582 188.321 438.764 207.52 438.764C232.991 438.764 253.627 459.564 253.627 485.241C253.627 487.782 253.187 490.648 252.601 493.455C251.282 499.63 248.966 505.539 246.064 511.153C241.199 520.608 237.535 530.772 235.307 541.498C233.314 551.071 232.435 561.088 232.845 571.34C235.454 634.571 287.247 685.243 350.002 686.071C361.99 686.219 373.568 684.593 384.502 681.432C343.114 667.988 313.187 628.868 313.187 582.686V582.657ZM388.459 635.073C388.459 649.965 393.148 663.704 401.121 674.991C422.313 665.093 440.076 649.078 452.299 629.193C448.371 623.136 445.88 616.015 445.498 608.274C444.619 590.487 454.819 574.738 470.003 567.824C470.003 567.676 470.003 567.529 470.003 567.381C465.753 566.554 461.356 566.111 456.842 566.111C419.06 566.111 388.459 596.987 388.459 635.073ZM415.953 488.402C415.953 482.788 411.439 478.268 405.87 478.268C400.3 478.268 395.816 482.818 395.816 488.432C395.816 494.046 400.33 498.566 405.899 498.566C411.468 498.566 415.953 494.016 415.953 488.432V488.402ZM459.802 445.087C462.44 438.232 463.877 430.815 463.877 423.045C463.877 411.876 460.828 401.446 455.64 392.434C453.676 406.646 448.019 419.617 439.665 430.372C439.46 430.668 439.314 430.993 439.109 431.288C435.503 429.368 431.605 427.477 427.384 425.556C424.277 423.961 421.492 422.247 419.001 420.504C408.478 414.358 400.564 404.164 397.369 392.02C395.376 398.639 394.321 405.641 394.321 412.91C394.321 436.932 405.957 458.205 423.867 471.324L424.043 471.442C427.736 474.308 431.282 477.293 434.624 480.602C447.843 493.632 458.073 509.765 464.14 527.788C470.354 519.338 474.634 509.381 476.334 498.537C476.891 495.08 477.184 491.534 477.184 487.929C477.184 469.108 472.113 456.137 459.773 445.087H459.802Z" fill="#F0533D"/>
<path d="M682.873 402.573C661.129 402.573 646.514 421.225 646.514 450.865C646.514 483.066 661.72 499.75 688.806 499.75C700.266 499.75 706.99 497.981 713.307 495.236C715.479 494.252 716.669 492.293 715.878 489.936L713.706 483.661C712.915 481.503 711.334 479.939 708.371 480.908C702.645 482.479 697.303 484.248 689.789 484.248C672.005 484.248 666.079 474.038 665.288 455.782H714.496C716.868 455.782 718.841 453.815 718.841 451.459C718.841 415.338 703.029 402.581 682.881 402.581L682.873 402.573ZM665.281 442.218C667.254 421.805 676.15 416.901 683.464 416.901C695.715 416.901 700.067 429.659 700.458 442.218H665.281Z" fill="#CA031A"/>
<path d="M877.785 402.573C854.075 402.573 839.26 421.027 839.26 451.261C839.26 481.495 854.075 499.75 877.785 499.75C901.495 499.75 916.124 481.297 916.124 451.261C916.124 421.225 901.495 402.573 877.785 402.573ZM877.393 484.828C865.135 484.828 857.628 475.014 857.628 451.261C857.628 427.508 865.135 417.694 877.393 417.694C889.651 417.694 897.357 427.897 897.357 451.261C897.357 474.625 889.85 484.828 877.393 484.828Z" fill="#CA031A"/>
<path d="M632.01 452.443C627.665 443.209 620.159 433.982 609.283 432.022C609.482 432.022 610.273 431.817 610.864 431.817C631.02 429.071 639.716 414.347 639.716 399.432C639.716 386.674 632.601 366.65 599.803 366.65H565.616C563.244 366.65 561.072 368.61 561.072 370.966V494.443C561.072 496.8 563.244 498.767 565.616 498.767H575.103C577.467 498.767 579.447 496.8 579.447 494.443V439.282H588.735C602.167 439.282 608.3 447.525 612.844 455.973C618.371 466.176 622.124 480.313 627.274 495.618C628.064 498.172 629.838 498.767 632.01 498.767H645.058C648.612 498.767 649.211 496.601 648.021 493.467C641.105 474.427 634.389 457.346 632.01 452.443ZM597.239 423.772H579.447V382.946H599.404C613.627 382.946 620.949 391.387 620.949 401.993C620.949 415.543 611.861 423.779 597.239 423.779V423.772Z" fill="#CA031A"/>
<path d="M821.432 358.4C814.523 358.4 809.189 363.89 809.189 370.563C809.189 377.235 814.523 382.938 821.432 382.938C828.34 382.938 833.497 377.441 833.497 370.563C833.497 363.685 828.155 358.4 821.432 358.4Z" fill="#CA031A"/>
<path d="M825.983 403.748H817.087C814.715 403.748 812.543 405.715 812.543 408.071V494.443C812.543 496.8 814.715 498.767 817.087 498.767H825.983C828.148 498.767 830.328 496.8 830.328 494.443V408.071C830.328 405.715 828.148 403.748 825.983 403.748Z" fill="#CA031A"/>
<path d="M775.12 482.075H758.717C751.609 482.075 748.447 480.901 748.447 476.783C748.447 474.625 750.028 472.467 752.001 470.698C754.964 471.483 758.318 471.872 761.68 471.872C783.617 471.872 797.64 458.711 797.64 437.131C797.64 430.451 794.678 423.97 790.533 418.281L797.049 417.496C799.421 417.298 801.002 415.925 801.002 413.378V408.269C801.002 405.722 799.421 403.755 796.658 403.755H773.93C769.778 403.755 765.832 402.779 761.673 402.779C740.527 402.779 726.104 415.14 726.104 437.131C726.104 450.079 731.638 459.893 740.327 465.596C735.584 469.912 731.638 475.014 731.638 481.892C731.638 493.269 741.709 497.196 753.375 497.196H772.541C783.21 497.196 787.37 501.519 787.37 509.572C787.37 518.211 777.883 523.503 765.832 523.503C756.545 523.503 746.26 521.742 744.679 511.341C744.287 508.786 742.706 507.413 740.334 507.215L730.456 506.819C728.084 506.819 726.111 508.595 726.111 511.142C726.311 532.348 746.267 538.624 765.234 538.624C784.201 538.624 804.556 530.381 804.556 507.612C804.556 491.309 793.096 482.082 775.113 482.082L775.12 482.075ZM761.887 416.123C771.566 416.123 779.472 419.456 779.472 436.735C779.472 454.014 770.982 458.131 761.887 458.131C752.792 458.131 744.494 454.997 744.494 436.735C744.494 418.472 752.393 416.123 761.887 416.123Z" fill="#CA031A"/>
<path d="M776.952 570.398C766.475 570.398 758.177 574.325 749.873 583.948L747.9 575.11C747.301 572.563 745.927 571.58 743.156 571.58H737.231C734.859 571.58 732.694 573.349 732.694 575.705V662.283C732.694 664.631 734.859 666.599 737.231 666.599H746.319C748.683 666.599 750.67 664.631 750.67 662.283V608.883C750.67 595.736 759.958 585.717 772.001 585.717C780.099 585.717 783.269 589.835 783.269 598.863V662.275C783.269 664.624 785.441 666.591 787.82 666.591H796.901C799.265 666.591 801.245 664.624 801.245 662.275V594.936C801.245 580.219 791.758 570.398 776.944 570.398H776.952Z" fill="#CA031A"/>
<path d="M721.271 606.328C721.271 590.422 718.7 570.405 687.276 570.405C678.787 570.405 669.093 572.563 663.367 574.134C660.988 574.721 660.012 576.688 660.611 579.243L662.17 586.495C662.768 589.049 664.748 590.422 667.32 589.637C672.647 588.264 678.58 586.304 686.286 586.304C700.325 586.304 703.479 591.604 703.479 602.996V607.701L681.75 609.081C665.738 610.255 652.114 618.498 652.114 639.506C652.114 657.159 661.793 667.575 677.597 667.575C688.466 667.575 698.743 663.655 704.869 654.032L706.25 662.672C706.642 665.417 708.422 666.599 710.794 666.599H719.89C722.461 666.599 723.835 664.83 723.436 662.283L722.254 656.587C721.072 650.7 721.271 645.4 721.271 640.497V606.328ZM703.472 635.182C703.472 642.442 695.382 653.254 682.732 653.254C675.425 653.254 670.275 648.938 670.275 639.506C670.275 624.774 678.964 621.243 691.03 620.854L703.465 620.458V635.175L703.472 635.182Z" fill="#CA031A"/>
<path d="M880.51 661.497L848.104 612.413L874.585 576.49C876.166 574.332 875.183 571.58 872.412 571.58H859.778C857 571.58 855.227 572.96 854.044 574.919L830.135 611.231V531.532C830.135 528.977 828.162 527.208 825.79 527.208H816.887C814.523 527.208 812.535 528.977 812.535 531.532V662.283C812.535 664.631 814.523 666.599 816.887 666.599H825.79C828.162 666.599 830.135 664.631 830.135 662.283V615.357L858.78 662.87C860.162 665.219 861.943 666.599 864.115 666.599H878.161C880.917 666.599 881.907 663.655 880.518 661.497H880.51Z" fill="#CA031A"/>
<path d="M617.387 596.507C633.399 591.795 640.115 581.973 640.115 567.256C640.115 547.819 626.867 534.475 603.955 534.475H565.616C563.244 534.475 561.072 536.435 561.072 538.791V662.275C561.072 664.624 563.244 666.591 565.616 666.591H605.928C630.827 666.591 645.841 653.049 645.841 629.486C645.841 612.406 636.361 598.672 617.387 596.507ZM579.447 550.176H600.394C614.417 550.176 621.348 557.244 621.348 569.811C621.348 582.377 613.834 589.637 599.012 589.637H579.447V550.176ZM604.347 650.494H579.447V604.361H600.593C616.612 604.361 626.084 614.175 626.084 627.527C626.084 641.862 617.993 650.494 604.347 650.494Z" fill="#CA031A"/>
</svg>
