<?xml version="1.0" encoding="utf-8"?>
<!-- Generator: Adobe Illustrator 23.0.6, SVG Export Plug-In . SVG Version: 6.00 Build 0)  -->
<svg version="1.1" id="Ebene_1" xmlns="http://www.w3.org/2000/svg" xmlns:xlink="http://www.w3.org/1999/xlink" x="0px" y="0px"
	 viewBox="0 0 254 60" style="enable-background:new 0 0 254 60;" xml:space="preserve">
<style type="text/css">
	.st0{fill-rule:evenodd;clip-rule:evenodd;fill:#71B2D1;}
	.st1{fill:#1D2362;}
	.st2{fill:#71B2D1;}
</style>
<g>
	<path class="st0" d="M24.4,20.8c2.1,0,5.1,3.9,5.1,4c0,0.3-0.3,0.3-0.3,0.8c0,0.2,1,1.6,1.3,1.6c0.1,0,1.4-1.3,1.4-1.6
		c0-0.3-0.4-0.4-0.4-0.9c0,0,2.9-3.9,4.9-3.9c2.4,0,3.1,3.3,3.6,4.1v0.3c-0.3,0-0.5,0-0.8,0c-0.6,0-2.7,2.7-3.1,2.7
		c-1,0-0.8-1.7-1.1-2.5h-0.3c-0.4,0.7-0.3,1.1-0.3,2.5c0,0.8-1,1.6-1,1.9c0,0.4,5.9,6.2,5.9,6.4c0,0-1.9,2.3-2.4,2.5l-6.3-6.2
		c-1,0.3-5.9,6.2-6.4,6.2c-0.4,0-2.4-2.6-2.4-2.6l5.9-6.3c0-0.2-0.9-1-0.9-1c-0.5-0.8,0.2-2-0.6-3.4h-0.3c0,0.3,0,2.5-1,2.5
		c-0.3,0-2.7-2.9-3.2-2.9c-0.1,0-0.2,0.2-0.8,0.4V25C21.1,24.6,22,20.8,24.4,20.8L24.4,20.8z"/>
	<path class="st1" d="M58.5,20.4c0,7.9-9.1,11.4-9.1,11.7c0,0.3,2.3,3.5,2.4,8.4c0.1,3.9-3,13.5-14,14l-22.9,0c0,0-3.3-9.8-3.3-9.8
		h25.1c0,0,11.3,0.1,11.5-7.4c0.1-4.5-3.6-6.7-3.6-6.7s8.5-2.9,8.5-7.4c0-6.4-12.3-8.6-21.1-8.6c-9.6,0-22.2,2.1-22.2,8.6
		c0,2.2,0.9,4.7,2.4,7.4C7.8,28.2,4.8,25,4.8,20.4C4.7,8.3,22.2,4.8,31.7,4.8C40.5,4.9,58.5,8.7,58.5,20.4L58.5,20.4z"/>
	<g>
		<path class="st1" d="M84.8,16.3c0,4.6-3.3,6.8-7.8,6.8h-2.1v6.6h-4.7V9.9h6.4C81.7,9.9,84.8,12,84.8,16.3z M80,16.3
			c0-2.1-1.2-3.1-3.5-3.1h-1.7v6.5h1.7C78.7,19.7,80,18.8,80,16.3z"/>
		<path class="st1" d="M104.9,19.8c0,6.5-3.3,10.4-9,10.4c-5.6,0-8.9-3.8-8.9-10.4c0-6.5,3.3-10.4,8.9-10.4
			C101.5,9.4,104.9,13.1,104.9,19.8z M91.9,19.8c0,5,1.4,7,4,7c2.7,0,4-1.9,4-7c0-5-1.4-7-4-7C93.3,12.8,91.9,14.7,91.9,19.8z"/>
		<path class="st1" d="M121.4,11.9l-2.2,2.5c-1.3-1.1-2.7-1.7-4.3-1.7c-1.6,0-2.7,0.7-2.7,1.9s0.7,1.8,3.8,2.7
			c3.7,1.2,5.9,2.7,5.9,6.4c0,3.7-2.9,6.3-7.9,6.3c-3.4,0-5.9-1.3-7.5-2.8l2.4-2.6c1.4,1.3,3,2,5,2c1.9,0,3.1-0.9,3.1-2.4
			c0-1.5-0.7-2.1-3.6-3c-4.4-1.4-6.1-3.2-6.1-6.2c0-3.5,3-5.7,7.2-5.7C117.5,9.4,119.6,10.3,121.4,11.9z"/>
		<path class="st1" d="M142,19.8c0,6.5-3.3,10.4-9,10.4c-5.6,0-8.9-3.8-8.9-10.4c0-6.5,3.3-10.4,8.9-10.4
			C138.7,9.4,142,13.1,142,19.8z M129,19.8c0,5,1.4,7,4,7c2.7,0,4-1.9,4-7c0-5-1.4-7-4-7C130.4,12.8,129,14.7,129,19.8z"/>
		<path class="st1" d="M144.4,33.1l-0.5-1.3c2.6-1.1,3.2-2.2,3.2-4.9V10.1h1.7v17C148.8,30.5,147.6,31.9,144.4,33.1z"/>
		<path class="st1" d="M155.6,29.7V10.1h1.7v19.6H155.6z"/>
		<path class="st1" d="M174.1,28.1l-0.2,1.5h-9.7V10.1h1.7v18.1H174.1z"/>
		<path class="st1" d="M189,29.7L179.8,12c0.1,1.3,0.2,3.2,0.2,6.8v11h-1.6V10.1h2.2l9.3,17.7c-0.1-0.8-0.2-3.3-0.2-5.8V10.1h1.6
			v19.6H189z"/>
		<path class="st1" d="M198.2,29.7V10.1h1.7v19.6H198.2z"/>
		<path class="st1" d="M218.5,11.6l-0.9,1.1c-1.3-1-2.4-1.5-4-1.5c-3.4,0-6.2,2.4-6.2,8.6c0,6,2.7,8.6,6.2,8.6c2,0,3.2-0.7,4.3-1.7
			l0.9,1.1c-1.1,1.1-2.9,2-5.3,2c-4.5,0-7.9-3.5-7.9-10.1c0-6.7,3.6-10.1,7.9-10.1C215.8,9.8,217.1,10.4,218.5,11.6z"/>
		<path class="st1" d="M223.9,24.3l-1.7,5.4h-1.7l6.6-19.6h2.1l6.5,19.6h-1.8l-1.7-5.4H223.9z M228.1,11.5l-3.7,11.4h7.3L228.1,11.5
			z"/>
		<path class="st2" d="M82.7,49.1c0,3.7-2.7,5.4-7,5.4h-5.4V34.9h4.4c4.5,0,7.1,1.6,7.1,4.9c0,2.5-1.5,3.9-3.6,4.3
			C80.6,44.4,82.7,45.7,82.7,49.1z M72.1,43.6H76c2.4,0,4.1-1.3,4.1-3.6c0-2.6-1.9-3.6-5.2-3.6h-2.8V43.6z M81,49.1
			c0-3-2.1-4.2-4.8-4.2h-4.1v8.2h3.6C78.9,53.1,81,52,81,49.1z"/>
		<path class="st2" d="M89.3,49.2l-1.7,5.4h-1.7l6.6-19.6h2.1l6.5,19.6h-1.8l-1.7-5.4H89.3z M93.5,36.3l-3.7,11.4h7.3L93.5,36.3z"/>
		<path class="st2" d="M117.1,54.5l-9.2-17.7c0.1,1.3,0.2,3.2,0.2,6.8v11h-1.6V34.9h2.2l9.3,17.7c-0.1-0.8-0.2-3.3-0.2-5.8V34.9h1.6
			v19.6H117.1z"/>
		<path class="st2" d="M127.4,54.5V34.9h1.7v19.6H127.4z M139.9,54.5h-2.1L129.3,44l8.2-9.1h2l-8.1,9L139.9,54.5z"/>
	</g>
</g>
<g>
</g>
<g>
</g>
<g>
</g>
<g>
</g>
<g>
</g>
<g>
</g>
</svg>
